<svg xmlns="http://www.w3.org/2000/svg" width="500" height="500" viewBox="0 0 500 500">
  <circle cx="250" cy="250" r="245" fill="#0d0d0d"/>
  <g fill="#c4607a">
    <!-- Right tentacle spikes (58°,80°,102°,124°,146°) -->
    <path d="M281.53,249.66 C331.89,220.45 370.54,191.72 368.16,187.24 C365.78,182.76 320.34,198.7 267.93,224.07Z"/>
    <path d="M279.91,260.64 C339.19,249.48 386.85,234.78 386.08,229.61 C385.3,224.43 335.42,224.35 275.47,231.06Z"/>
    <path d="M274.9,269.67 C334.52,278.17 384.3,279.57 385.23,274.43 C386.16,269.29 339.03,253.19 280.21,240.29Z"/>
    <path d="M267.12,276.44 C318.4,303.35 363.07,320.65 365.58,316.27 C368.09,311.89 330.6,282.08 281.46,251.42Z"/>
    <path d="M256.95,280.23 C291.45,320.47 323.61,350.28 327.27,347.37 C330.93,344.47 309.21,306.38 277.85,263.64Z"/>
    <!-- Left tentacle spikes (302°,280°,258°,236°,214°) -->
    <path d="M232.07,224.07 C179.66,198.7 134.22,182.76 131.84,187.24 C129.46,191.72 168.11,220.45 218.47,249.66Z"/>
    <path d="M224.53,231.06 C164.58,224.35 114.7,224.43 113.92,229.61 C113.15,234.78 160.81,249.48 220.09,260.64Z"/>
    <path d="M219.79,240.29 C160.97,253.19 113.84,269.29 114.77,274.43 C115.7,279.57 165.48,278.17 225.1,269.67Z"/>
    <path d="M218.54,251.42 C169.4,282.08 131.91,311.89 134.42,316.27 C136.93,320.65 181.6,303.35 232.88,276.44Z"/>
    <path d="M222.15,263.64 C190.79,306.38 169.07,344.47 172.73,347.37 C176.39,350.28 208.55,320.47 243.05,280.23Z"/>
    <!-- Top spikes -->
    <path d="M220,204 C218.2,159.45 211.6,129.48 208,123 C204.4,129.48 197.8,159.45 196,204Z"/>
    <path d="M304,204 C302.2,159.45 295.6,129.48 292,123 C288.4,129.48 281.8,159.45 280,204Z"/>
    <path d="M249,204 C247.2,188.6 240.6,178.24 237,176 C233.4,178.24 226.8,188.6 225,204Z"/>
    <path d="M275,204 C273.2,188.6 266.6,178.24 263,176 C259.4,178.24 252.8,188.6 251,204Z"/>
    <!-- Bottom angled spikes -->
    <path d="M207.11,294.17 C201.44,358.86 203.15,412.57 207.62,413.12 C212.09,413.67 226.75,361.97 236.89,297.83Z"/>
    <path d="M263.11,297.83 C273.25,361.97 287.91,413.67 292.38,413.12 C296.85,412.57 298.56,358.86 292.89,294.17Z"/>
    <!-- Bottom center spikes -->
    <path d="M252,296 C250.05,322.4 242.9,340.16 239,344 C235.1,340.16 227.95,322.4 226,296Z"/>
    <path d="M274,296 C272.05,322.4 264.9,340.16 261,344 C257.1,340.16 249.95,322.4 248,296Z"/>
    <!-- Central body (drawn last, covers spike bases) -->
    <path d="M194,204 L306,204 C326,204 326,296 306,296 L194,296 C174,296 174,204 194,204Z"/>
  </g>
</svg>
